<svg xmlns="http://www.w3.org/2000/svg" viewBox="0 0 1000 1000" width="500px" height="500px" role="img">
  <title>Heart and electrocardiogram illustration composed of pieces of the Bipartisan Policy Center logo arches.</title>
  <g id="Health">
    <g data-name="blues">
      <path data-name="38" d="M500.38,475.79c-6-.88-9.83-1.23-15-1.64L506,484.82l3.71-7.3A56.75,56.75,0,0,0,500.38,475.79Z" fill="#3d618c"/>
      <rect data-name="37" x="469.79" y="492.54" width="47.6" height="47.6" transform="translate(-61.59 66.88) rotate(-7.3)" fill="#3d618c" opacity="0.8" style="isolation: isolate"/>
      <path data-name="36" d="M521.88,716.46,519.79,733c8.26.51,16.53.79,24.76,1l2.32-18.81C538.67,715.84,530.31,716.35,521.88,716.46Z" fill="#3d618c" opacity="0.8" style="isolation: isolate"/>
      <path data-name="35" d="M464.1,467.62l4.63,26,28.79-5Q481.35,477.72,464.1,467.62Z" fill="#3d618c" opacity="0.8" style="isolation: isolate"/>
      <path data-name="34" d="M547.13,712c6.45-15.35,12.36-31.37,17.91-48.11l-38.1.88,1.13,47.62Z" fill="#3d618c" opacity="0.8" style="isolation: isolate"/>
      <path data-name="33" d="M532.3,778.39c4.12-13.69,7.83-28,11.28-42.56l-18.73,3.58Z" fill="#3d618c"/>
      <path data-name="32" d="M515.12,654.68l-3.18-15.95-10.37,2C506,645.57,510.53,650.14,515.12,654.68Z" fill="#3d618c"/>
      <path data-name="31" d="M511.45,688.53l14.1-24.91-21.48-12.11C506.14,663.74,508.48,676.07,511.45,688.53Z" fill="#3d618c"/>
      <path data-name="30" d="M341.79,526.87l47.54,3,2.74-43.33c-2.53-1.56-5.08-3.23-7.7-4.77l-39.51-2.43Z" fill="#3d618c" opacity="0.8" style="isolation: isolate"/>
      <rect data-name="29" x="454.33" y="275.34" width="28.1" height="47.6" transform="translate(-38.15 70.47) rotate(-8.27)" fill="#3d618c" opacity="0.8" style="isolation: isolate"/>
      <path data-name="28" d="M520.93,688.41l-8.1,1a225.52,225.52,0,0,1,10.53,20.9Z" fill="#3d618c"/>
      <rect data-name="27" x="239.54" y="481.12" width="47.6" height="47.6" transform="translate(-12.55 6.75) rotate(-1.43)" fill="#3d618c" opacity="0.6" style="isolation: isolate"/>
      <rect data-name="26" x="386.97" y="433.56" width="47.6" height="47.6" transform="translate(-140.72 728.96) rotate(-74.29)" fill="#3d618c" opacity="0.6" style="isolation: isolate"/>
      <path data-name="25" d="M622.45,521.17l-.08,3.9,47.56.52.52-47.57-34.21-.35C632,492.59,627.42,507.16,622.45,521.17Z" fill="#3d618c"/>
      <rect data-name="24" x="569.99" y="506.54" width="47.6" height="47.6" transform="translate(-61.68 982.24) rotate(-76.35)" fill="#3d618c" opacity="0.8" style="isolation: isolate"/>
      <path data-name="23" d="M509.32,473.24,507.66,439l-47.57,2.35L461.15,464Q486.05,468,509.32,473.24Z" fill="#3d618c" opacity="0.8" style="isolation: isolate"/>
      <path data-name="22" d="M564.19,550.62l-12,46.1,25.6,6.7c9.2-6.5,18.2-13.4,27.3-20.7l5.2-20.1Z" fill="#3d618c" opacity="0.8" style="isolation: isolate"/>
      <path data-name="21" d="M553.17,656l-6.78-22.64-28,8.73,5.08,17C533.67,657.82,543.53,656.8,553.17,656Z" fill="#3d618c" opacity="0.6" style="isolation: isolate"/>
      <path data-name="20" d="M340.18,506.37l-1-26.88-47.56,1.72,1.73,47.56,29.49-1.06C328.49,520.31,334.19,513.13,340.18,506.37Z" fill="#3d618c"/>
      <path data-name="19" d="M515.85,639.43l33-7.67-5.26-22.55c-5.19-7.29-10.59-14.36-16.27-21.28l-35.67,8.26,6.68,28.41C504.47,629.33,510.27,634.27,515.85,639.43Z" fill="#3d618c"/>
      <path data-name="18" d="M172.81,524.78l29.25,0V497.87A299.84,299.84,0,0,1,172.81,524.78Z" fill="#3d618c"/>
      <path data-name="17" d="M491.62,383c-8.47-15.73-17.86-31.28-28.06-46.38l-10.43.42,2,47.62Z" fill="#3d618c"/>
      <path data-name="16" d="M454.42,326.43l-5.85-42a393.1,393.1,0,0,1-23.32,46.07Z" fill="#3d618c"/>
      <path data-name="15" d="M620.42,506.29l-3.82-.81c1.19.66,2.36,1.42,3.53,2.18Z" fill="#3d618c"/>
      <path data-name="14" d="M452.2,388.82,423.93,384c-7.38,4.79-14.59,9.85-21.72,15l-4.85,28.76,46.88,8Z" fill="#3d618c" opacity="0.8" style="isolation: isolate"/>
      <rect data-name="13" x="677.76" y="475.93" width="47.6" height="47.6" transform="translate(200.78 1200.54) rotate(-89.91)" fill="#3d618c" opacity="0.6" style="isolation: isolate"/>
      <rect data-name="12" x="481.44" y="542.36" width="47.6" height="47.6" transform="translate(-122.85 140.35) rotate(-14.12)" fill="#3d618c"/>
      <path data-name="11" d="M499.18,386.36l-16.07,1.88c-9.74,8.45-19.16,17.29-28.48,26.56l3,24.53,47.26-5.63Z" fill="#3d618c" opacity="0.6" style="isolation: isolate"/>
      <path data-name="10" d="M827,471l-47.6,1.33.93,33.92a272.29,272.29,0,0,1,46.86-27.17Z" fill="#3d618c" opacity="0.8" style="isolation: isolate"/>
      <path data-name="9" d="M452.17,409.34c5.9-6,11.65-12.09,17.45-18.43l-14.47-2.06Z" fill="#3d618c" opacity="0.6" style="isolation: isolate"/>
      <path data-name="8" d="M571,657.42c7.84-16.24,15.32-33.3,22-51.16l-42.88,5.9,6.44,47.13Z" fill="#3d618c" opacity="0.6" style="isolation: isolate"/>
      <rect data-name="7" x="196.8" y="490.26" width="47.6" height="28.1" transform="translate(-286.44 718.55) rotate(-89.28)" fill="#3d618c"/>
      <path data-name="6" d="M467.65,325.65c6.42,15.26,13.36,30,20.51,44.33l8-1.7-9.91-46.51Z" fill="#3d618c"/>
      <path data-name="5" d="M599.56,503.57a262.24,262.24,0,0,1,26.51-1.89l3.59-18.7c-16.27-1.44-32.32-2-48.1-2.14L578,499.46Z" fill="#3d618c"/>
      <path data-name="4" d="M407.77,382.51,452.18,381l-1.77-47.66-20.08.72A471.52,471.52,0,0,1,407.77,382.51Z" fill="#3d618c"/>
      <path data-name="3" d="M770.49,475.41l-42.38,1.45,1.69,47.57,47.57-1.69-1.54-44.48C774.08,477.34,772.24,476.43,770.49,475.41Z" fill="#3d618c" opacity="0.8" style="isolation: isolate"/>
      <path data-name="2" d="M452.41,272.49l19.65-4.4-10.13-46.48-1.29.33C458.45,239.44,455.82,256.28,452.41,272.49Z" fill="#3d618c" opacity="0.6" style="isolation: isolate"/>
      <path data-name="1" d="M421.47,531.83,425.75,494q-13.15-6.46-26.83-12.65l-5.28,47.26Z" fill="#3d618c" opacity="0.6" style="isolation: isolate"/>
    </g>
    <g data-name="reds">
      <path data-name="38" d="M710.89,415.28l21.44,2.05L737,370l-45.84-4.37A489.4,489.4,0,0,1,710.89,415.28Z" fill="#e43d46" opacity="0.6" style="isolation: isolate"/>
      <path data-name="37" d="M623.24,299.34c-.92.45-1.62.94-2.54,1.4l-2.24,46.12,47.59,2.4,2.4-47.59Z" fill="#e43d46" opacity="0.6" style="isolation: isolate"/>
      <path data-name="36" d="M374.07,465.52l-15.49-32.21q-9.91-1.56-19.58-3.75l-28.45,13.66,15.73,32.69c9.23,0,18.54-.28,27.74-.76Z" fill="#e43d46"/>
      <path data-name="35" d="M552.14,562.44l-9.59.71,1.91,26C546.65,580,549.14,571.18,552.14,562.44Z" fill="#e43d46"/>
      <path data-name="34" d="M365.3,466v-19.3c-15.5-2.9-31.4-5.1-47.6-6.8v20.3c7.3,1.7,14.5,3.6,21.5,5.8H365.3z" fill="#e43d46" opacity="0"/>
      <path data-name="33" d="M324.41,362.43l45.84,12.81,12.81-45.84-23.27-6.51c-10.84,7.85-21.17,16-31.11,24.46Z" fill="#e43d46" opacity="0.6" style="isolation: isolate"/>
      <path data-name="32" d="M312,410l7.24,16.07-.86.38c8.45-2.55,16.91-4.59,25.29-6.34l-8.39-18.45C327.59,404.26,319.89,407,312,410Z" fill="#e43d46"/>
      <path data-name="31" d="M533.22,555.79,556.81,558l4.34-47.45L526,507.26C528.83,523,531.19,539.23,533.22,555.79Z" fill="#e43d46" opacity="0.8" style="isolation: isolate"/>
      <path data-name="30" d="M372.91,318.66l-.41,2.51,47,7.25,3.31-21.3C406.76,311.56,390.05,315.32,372.91,318.66Z" fill="#e43d46"/>
      <path data-name="29" d="M684.88,423.16c.36,12.93.35,26.27-.11,39.75l32,9.88,13.35-43-43-13.36Z" fill="#e43d46" opacity="0.8" style="isolation: isolate"/>
      <rect data-name="28" x="629.79" y="423.31" width="47.6" height="47.6" transform="translate(-13.28 20.06) rotate(-1.74)" fill="#e43d46" opacity="0.8" style="isolation: isolate"/>
      <path data-name="27" d="M573.46,426.22,572.14,419l-2.5.46C571,421.63,572.25,423.92,573.46,426.22Z" fill="#e43d46"/>
      <path data-name="26" d="M492.65,316.92l1.76,29.18L526,344.18A291.23,291.23,0,0,1,492.65,316.92Z" fill="#e43d46"/>
      <path data-name="25" d="M431.11,506.22l-.82,18.08,28,1.24,1.06-23.72C450.13,503.4,440.75,504.86,431.11,506.22Z" fill="#e43d46"/>
      <path data-name="24" d="M620.75,558.28c-2.13,4.85-3,6.94-4.87,11.82-1,2.48-2.88,7.86-3.72,10.32l8.1.24Z" fill="#e43d46"/>
      <path data-name="23" d="M453.66,644.5h28.27l-.07-47.66-47.66.07,0,28.68C440.64,632.1,447.1,638.48,453.66,644.5Z" fill="#e43d46" opacity="0.8" style="isolation: isolate"/>
      <rect data-name="22" x="645.65" y="374.59" width="47.6" height="28.1" transform="translate(245.05 1036.02) rotate(-86.89)" fill="#e43d46" opacity="0.8" style="isolation: isolate"/>
      <rect data-name="21" x="525.05" y="455.51" width="47.6" height="47.6" transform="translate(23.45 984.21) rotate(-84.99)" fill="#e43d46" opacity="0.6" style="isolation: isolate"/>
      <rect data-name="20" x="561.19" y="361.3" width="28.1" height="47.6" transform="translate(-68.47 130.47) rotate(-12.22)" fill="#e43d46" opacity="0.8" style="isolation: isolate"/>
      <path data-name="19" d="M400.59,384.25q7-17.38,12.58-35l-22.71,8.64Z" fill="#e43d46" opacity="0.6" style="isolation: isolate"/>
      <rect data-name="18" x="503.14" y="352.41" width="47.6" height="47.6" transform="translate(-1.41 1.98) rotate(-0.21)" fill="#e43d46" opacity="0.6" style="isolation: isolate"/>
      <path data-name="17" d="M503.82,689.78a274,274,0,0,1-4.45-54.12l-29.89,19.75,26.25,39.74Z" fill="#e43d46"/>
      <rect data-name="16" x="598.57" y="369.84" width="47.6" height="47.6" transform="translate(-20.07 33.68) rotate(-3.05)" fill="#e43d46" opacity="0.6" style="isolation: isolate"/>
      <path data-name="15" d="M609.2,365.41c6.25-.42,12.48-1,18.62-1.59l-6.27-8Z" fill="#e43d46"/>
      <path data-name="14" d="M587,625c-2,14.67-3.66,28.89-4.53,43L603,635Z" fill="#e43d46"/>
      <path data-name="13" d="M453.74,490.46l1.39-47.57-8.09-.26c-4.9,15.37-9,31-12.52,47.19Z" fill="#e43d46"/>
      <rect data-name="12" x="512" y="404.2" width="47.6" height="47.6" transform="translate(102.69 959.68) rotate(-89.45)" fill="#e43d46" opacity="0.6" style="isolation: isolate"/>
      <path data-name="11" d="M315.06,368.37c-2.18,12.88-4.09,25.67-5.28,38.37l22.07-18.49Z" fill="#e43d46" opacity="0.8" style="isolation: isolate"/>
      <rect data-name="10" x="425.27" y="542.51" width="47.6" height="47.6" transform="translate(-14.23 11.58) rotate(-1.45)" fill="#e43d46"/>
      <path data-name="9" d="M576.47,474.23l47.64,1.09,1.1-47.63-39-.95c-3,1.47-5.85,3-8.76,4.4Z" fill="#e43d46" opacity="0.6" style="isolation: isolate"/>
      <path data-name="8" d="M613.65,301.52l-28,1.64,2.8,47.58c9.34-3.65,18.56-7.38,27.44-11.24Z" fill="#e43d46" opacity="0.8" style="isolation: isolate"/>
      <path data-name="7" d="M579.21,350.35l.89-38c-16.64,5.56-32.66,11.67-48.05,18.2l-.47,18.78Z" fill="#e43d46" opacity="0.8" style="isolation: isolate"/>
      <path data-name="6" d="M635.78,529.31l-8.43,46.89,10,1.83a524.55,524.55,0,0,0,34.17-42.21Z" fill="#e43d46"/>
      <path data-name="5" d="M423.05,585.31l.15-47.61-47.61-.14-.15,20.19c7,9.52,14.21,18.75,21.49,27.54Z" fill="#e43d46" opacity="0.6" style="isolation: isolate"/>
      <path data-name="4" d="M683.22,358.65l42.07-8.88Q706.84,328,687.25,309l-13.87,2.91Z" fill="#e43d46"/>
      <path data-name="3" d="M389.68,422.89c2.91-7.62,6.08-15,9.68-22.5l-13.64-28.47-42.94,20.63,20.63,42.94Z" fill="#e43d46"/>
      <path data-name="2" d="M389.46,349.07c6.83-4.77,13.43-9.56,20-14.42l-20.09.21Z" fill="#e43d46"/>
      <path data-name="1" d="M634.31,583,592.7,600.46l12.16,29A412.31,412.31,0,0,1,634.31,583Z" fill="#e43d46"/>
    </g>
  </g>
</svg>
